<?xml version="1.0" standalone="no"?>
<!DOCTYPE svg PUBLIC "-//W3C//DTD SVG 20010904//EN"
 "http://www.w3.org/TR/2001/REC-SVG-20010904/DTD/svg10.dtd">
<svg version="1.0" xmlns="http://www.w3.org/2000/svg"
 width="306.000000pt" height="306.000000pt" viewBox="0 0 306.000000 306.000000"
 preserveAspectRatio="xMidYMid meet">
<metadata>
Created by potrace 1.14, written by Peter Selinger 2001-2017
</metadata>
<g transform="translate(0.000000,306.000000) scale(0.100000,-0.100000)"
fill="#000000" stroke="none">
<path d="M180 2565 l0 -45 -45 0 -45 0 0 -180 0 -180 45 0 45 0 0 -225 0 -225
-45 0 -45 0 0 -450 0 -450 135 0 135 0 0 -45 0 -45 45 0 45 0 0 -45 0 -45 90
0 90 0 0 45 0 45 180 0 180 0 0 -45 0 -45 315 0 315 0 0 -45 0 -45 135 0 135
0 0 45 0 45 180 0 180 0 0 45 0 45 90 0 90 0 0 -45 0 -45 45 0 45 0 0 -45 0
-45 90 0 90 0 0 45 0 45 45 0 45 0 0 225 0 225 -45 0 -45 0 0 45 0 45 45 0 45
0 0 45 0 45 45 0 45 0 0 45 0 45 45 0 45 0 0 270 0 270 -45 0 -45 0 0 90 0 90
-45 0 -45 0 0 45 0 45 -45 0 -45 0 0 45 0 45 -45 0 -45 0 0 -45 0 -45 -90 0
-90 0 0 45 0 45 -45 0 -45 0 0 45 0 45 -135 0 -135 0 0 -45 0 -45 -180 0 -180
0 0 45 0 45 -135 0 -135 0 0 -45 0 -45 -45 0 -45 0 0 -45 0 -45 -90 0 -90 0 0
-90 0 -90 -90 0 -90 0 0 -45 0 -45 -90 0 -90 0 0 90 0 90 -45 0 -45 0 0 45 0
45 -45 0 -45 0 0 90 0 90 -45 0 -45 0 0 45 0 45 -45 0 -45 0 0 45 0 45 -90 0
-90 0 0 45 0 45 -45 0 -45 0 0 -45z m90 -90 l0 -45 90 0 90 0 0 -45 0 -45 45
0 45 0 0 -90 0 -90 45 0 45 0 0 -45 0 -45 45 0 45 0 0 -90 0 -90 45 0 45 0 0
-45 0 -45 90 0 90 0 0 45 0 45 90 0 90 0 0 45 0 45 45 0 45 0 0 45 0 45 45 0
45 0 0 45 0 45 45 0 45 0 0 45 0 45 135 0 135 0 0 -45 0 -45 135 0 135 0 0
-45 0 -45 45 0 45 0 0 90 0 90 135 0 135 0 0 -45 0 -45 -45 0 -45 0 0 -45 0
-45 -45 0 -45 0 0 -45 0 -45 135 0 135 0 0 45 0 45 90 0 90 0 0 45 0 45 45 0
45 0 0 -45 0 -45 45 0 45 0 0 -45 0 -45 -45 0 -45 0 0 45 0 45 -45 0 -45 0 0
-45 0 -45 -90 0 -90 0 0 -45 0 -45 225 0 225 0 0 -270 0 -270 -45 0 -45 0 0
-45 0 -45 -135 0 -135 0 0 -45 0 -45 45 0 45 0 0 -90 0 -90 45 0 45 0 0 -135
0 -135 -45 0 -45 0 0 -45 0 -45 -45 0 -45 0 0 45 0 45 45 0 45 0 0 45 0 45
-45 0 -45 0 0 90 0 90 -45 0 -45 0 0 135 0 135 -45 0 -45 0 0 -45 0 -45 -90 0
-90 0 0 45 0 45 -180 0 -180 0 0 -45 0 -45 135 0 135 0 0 -45 0 -45 135 0 135
0 0 -135 0 -135 -45 0 -45 0 0 -45 0 -45 -180 0 -180 0 0 -45 0 -45 -45 0 -45
0 0 45 0 45 -45 0 -45 0 0 -45 0 -45 -45 0 -45 0 0 45 0 45 -180 0 -180 0 0
45 0 45 -45 0 -45 0 0 -45 0 -45 -45 0 -45 0 0 45 0 45 45 0 45 0 0 45 0 45
-90 0 -90 0 0 -45 0 -45 -180 0 -180 0 0 -45 0 -45 -90 0 -90 0 0 45 0 45 45
0 45 0 0 90 0 90 -45 0 -45 0 0 45 0 45 -45 0 -45 0 0 -90 0 -90 -90 0 -90 0
0 135 0 135 45 0 45 0 0 45 0 45 -45 0 -45 0 0 180 0 180 45 0 45 0 0 270 0
270 -45 0 -45 0 0 180 0 180 45 0 45 0 0 -45z"/>
<path d="M1440 2070 l0 -90 90 0 90 0 0 45 0 45 -45 0 -45 0 0 45 0 45 -45 0
-45 0 0 -90z"/>
<path d="M1260 1755 l0 -45 -90 0 -90 0 0 -135 0 -135 45 0 45 0 0 -45 0 -45
45 0 45 0 0 -45 0 -45 45 0 45 0 0 -90 0 -90 45 0 45 0 0 -45 0 -45 90 0 90 0
0 -45 0 -45 -45 0 -45 0 0 -45 0 -45 45 0 45 0 0 -45 0 -45 45 0 45 0 0 135 0
135 -45 0 -45 0 0 45 0 45 -90 0 -90 0 0 90 0 90 -45 0 -45 0 0 45 0 45 -45 0
-45 0 0 45 0 45 -45 0 -45 0 0 90 0 90 45 0 45 0 0 45 0 45 45 0 45 0 0 45 0
45 -45 0 -45 0 0 -45z"/>
<path d="M2610 1755 l0 -45 45 0 45 0 0 45 0 45 -45 0 -45 0 0 -45z"/>
<path d="M270 1575 l0 -45 45 0 45 0 0 -45 0 -45 45 0 45 0 0 -45 0 -45 45 0
45 0 0 45 0 45 -45 0 -45 0 0 45 0 45 -45 0 -45 0 0 45 0 45 -45 0 -45 0 0
-45z"/>
<path d="M1620 1575 l0 -45 -90 0 -90 0 0 -45 0 -45 45 0 45 0 0 -45 0 -45 45
0 45 0 0 90 0 90 45 0 45 0 0 -90 0 -90 45 0 45 0 0 90 0 90 45 0 45 0 0 -90
0 -90 45 0 45 0 0 45 0 45 135 0 135 0 0 -90 0 -90 45 0 45 0 0 90 0 90 45 0
45 0 0 -90 0 -90 45 0 45 0 0 90 0 90 45 0 45 0 0 -45 0 -45 45 0 45 0 0 45 0
45 45 0 45 0 0 45 0 45 -45 0 -45 0 0 -45 0 -45 -45 0 -45 0 0 45 0 45 -90 0
-90 0 0 45 0 45 -45 0 -45 0 0 -45 0 -45 -45 0 -45 0 0 45 0 45 -45 0 -45 0 0
-45 0 -45 -45 0 -45 0 0 45 0 45 -45 0 -45 0 0 -45 0 -45 -45 0 -45 0 0 45 0
45 -135 0 -135 0 0 -45z"/>
<path d="M810 1170 l0 -90 45 0 45 0 0 -90 0 -90 45 0 45 0 0 90 0 90 -45 0
-45 0 0 90 0 90 -45 0 -45 0 0 -90z"/>
<path d="M270 1125 l0 -45 45 0 45 0 0 45 0 45 -45 0 -45 0 0 -45z"/>
<path d="M1890 1035 l0 -45 -45 0 -45 0 0 -135 0 -135 45 0 45 0 0 45 0 45 45
0 45 0 0 45 0 45 -45 0 -45 0 0 45 0 45 90 0 90 0 0 45 0 45 -90 0 -90 0 0
-45z"/>
</g>
</svg>
